<svg xmlns="http://www.w3.org/2000/svg" width="13.415" height="14.132" viewBox="0 0 13.415 14.132">
  <g id="search" transform="translate(-645.741 -370.699)">
    <path id="楕円形_85" data-name="楕円形 85" d="M5.12-1A6.12,6.12,0,1,1-1,5.12,6.127,6.127,0,0,1,5.12-1Zm0,10.241A4.12,4.12,0,1,0,1,5.12,4.125,4.125,0,0,0,5.12,9.241Z" transform="translate(646.741 371.699)" fill="#b9bcbf"/>
    <path id="線_156" data-name="線 156" d="M2.847,3.847a1,1,0,0,1-.707-.293L-.707.707a1,1,0,0,1,0-1.414,1,1,0,0,1,1.414,0L3.554,2.14a1,1,0,0,1-.707,1.707Z" transform="translate(655.309 380.984)" fill="#b9bcbf"/>
  </g>
</svg>
